<?xml version="1.0" encoding="utf-8"?>
<!-- Generator: Adobe Illustrator 17.1.0, SVG Export Plug-In . SVG Version: 6.00 Build 0)  -->
<!DOCTYPE svg PUBLIC "-//W3C//DTD SVG 1.1//EN" "http://www.w3.org/Graphics/SVG/1.1/DTD/svg11.dtd">
<svg version="1.1" id="Livello_1" xmlns="http://www.w3.org/2000/svg" xmlns:xlink="http://www.w3.org/1999/xlink" x="0px" y="0px"
	 viewBox="0 0 30 30" enable-background="new 0 0 30 30" xml:space="preserve">
<path fill="#EA5736" stroke="#EA5736" stroke-width="0.5" stroke-miterlimit="10" d="M24.7,3.3c-0.7,0.4-0.9,0.4-1.5,1
	C22.5,5,22,5.7,21.7,6.2c-0.4,0.6-0.6,1.2-0.8,1.8c-1.3-1.2-3.3-2.1-4.6-2.1c-1.4,0-3.6,1-4.9,2.3l-7.7,7.7c-1.3,1.3-1.3,3.3,0,4.6
	l5.6,5.6c1.3,1.3,3.3,1.3,4.6,0l7.7-7.7c1.3-1.3,2.3-3.4,2.3-4.9c0-1.4-1-3.6-2.3-4.9l0,0c1.8-0.6,3.5-1.4,4.8-2.7l0.1-0.1
	c0.3-0.3,0.4-0.3,0.8-0.9C28.6,3.1,26.3,2.4,24.7,3.3z M19.8,12c-0.5,0.5-1.4,0.5-2,0c-0.5-0.5-0.5-1.4,0-2c0.5-0.5,1.4-0.5,2,0
	C20.4,10.5,20.4,11.4,19.8,12z M26.9,5.2c-0.3,0.4-0.2,0.3-0.4,0.5l-0.1,0.1c-1.3,1.3-3,2.1-4.9,2.7l-0.3-0.3l0,0
	c0.2-0.6,0.4-1.2,0.8-1.8c0.3-0.5,0.8-1.2,1.5-1.8c0.6-0.6,0.8-0.7,1.5-1C27.1,2.3,28.2,3.6,26.9,5.2z"/>
<g>
	<rect x="7.5" y="13.9" fill="#FFFFFF" width="1.9" height="1.9"/>
	<rect x="9.9" y="13.9" fill="#FFFFFF" width="1.9" height="1.9"/>
	<rect x="12.3" y="13.9" fill="#FFFFFF" width="1.9" height="1.9"/>
	<rect x="14.6" y="13.9" fill="#FFFFFF" width="1.9" height="1.9"/>
	<rect x="7.5" y="16.2" fill="#FFFFFF" width="1.9" height="1.9"/>
	<rect x="9.9" y="16.2" fill="#FFFFFF" width="1.9" height="1.9"/>
	<rect x="12.3" y="16.2" fill="#FFFFFF" width="1.9" height="1.9"/>
	<rect x="14.6" y="16.2" fill="#FFFFFF" width="1.9" height="1.9"/>
	<rect x="7.5" y="20.5" fill="#FFFFFF" width="1.9" height="1.9"/>
	<rect x="9.9" y="20.5" fill="#FFFFFF" width="1.9" height="1.9"/>
	<rect x="12.3" y="20.5" fill="#FFFFFF" width="1.9" height="1.9"/>
	<rect x="14.6" y="20.5" fill="#FFFFFF" width="1.9" height="1.9"/>
	<g>
		<path d="M14.5,11C14.5,11,14.5,11,14.5,11C14.5,11,14.5,11,14.5,11z"/>
		<path d="M14.1,10.4L14.1,10.4C14.1,10.4,14.1,10.4,14.1,10.4z"/>
		<path d="M14.7,11.4L14.7,11.4C14.7,11.4,14.7,11.4,14.7,11.4L14.7,11.4z"/>
		<path d="M12.7,9.7L12.7,9.7C12.7,9.7,12.7,9.7,12.7,9.7z"/>
		<path d="M13.6,10C13.6,10,13.6,10,13.6,10C13.6,10,13.6,10,13.6,10z"/>
		<path d="M14.6,11.7L14.6,11.7C14.6,11.7,14.6,11.7,14.6,11.7z"/>
		<path d="M14.7,12.1C14.7,12.1,14.7,12.1,14.7,12.1C14.7,12.1,14.7,12.1,14.7,12.1z"/>
		<path d="M14.7,11.9C14.7,11.9,14.7,11.9,14.7,11.9C14.7,11.9,14.7,11.9,14.7,11.9z"/>
		<path d="M14.7,11.9L14.7,11.9C14.7,11.9,14.7,11.9,14.7,11.9z"/>
		<path d="M9.9,13.2C9.9,13.2,9.9,13.2,9.9,13.2L9.9,13.2z"/>
		<path d="M11.2,9.8L11.2,9.8C11.2,9.8,11.2,9.8,11.2,9.8z"/>
		<path d="M10,13.2L10,13.2C10,13.2,10,13.2,10,13.2z"/>
		<path d="M14.5,11.5C14.5,11.5,14.5,11.4,14.5,11.5C14.5,11.4,14.5,11.5,14.5,11.5z"/>
		<path d="M11.2,10.3L11.2,10.3C11.2,10.3,11.2,10.3,11.2,10.3z"/>
		<polygon points="10,13.2 10,13.2 10,13.2 		"/>
		<polygon points="10.2,10.9 10.2,10.9 10.2,10.9 		"/>
		<path d="M10.1,11C10.1,11,10.1,11,10.1,11C10.1,11,10.1,11,10.1,11z"/>
		<path d="M9.9,13.3L9.9,13.3C9.9,13.3,9.9,13.3,9.9,13.3z"/>
		<path d="M9.9,11.8L9.9,11.8C9.9,11.8,9.9,11.8,9.9,11.8z"/>
		<path d="M13.6,10C13.6,10,13.6,10,13.6,10C13.6,10,13.6,10,13.6,10z"/>
		<polygon points="13,10.1 13,10.1 13,10.1 		"/>
		<path d="M13,10.1C13,10.1,13,10.1,13,10.1C13,10.1,13,10.1,13,10.1z"/>
		<path d="M12.9,10.1L12.9,10.1C12.9,10.1,12.9,10.1,12.9,10.1z"/>
		<polygon points="13.5,10.3 13.5,10.3 13.5,10.3 		"/>
		<path d="M13.4,10.2C13.4,10.2,13.4,10.2,13.4,10.2C13.4,10.2,13.4,10.2,13.4,10.2z"/>
		<polygon points="12.7,10 12.7,10 12.7,10 		"/>
		<path d="M11.6,10.2c0.1,0,0.2-0.1,0.3-0.1c0,0,0.1,0,0.1,0l0,0c0,0,0,0,0,0c0,0,0,0,0,0l0,0c0,0,0.1,0,0,0c0,0,0.1,0,0.1,0
			c0,0,0,0,0,0c0,0,0,0,0,0c0.1,0,0.1-0.1,0.2,0l0,0c0,0,0,0,0,0c0,0,0,0,0,0c0,0,0,0,0,0c0,0,0,0,0,0c0,0,0.1,0,0.1,0
			c0,0,0,0,0.1,0c0,0,0,0,0,0l0,0c0,0,0,0,0,0c0,0,0,0,0.1,0l0,0c0,0,0,0,0.1,0c0,0,0,0,0,0c0,0,0,0,0,0c0,0,0,0,0,0c0,0,0,0,0,0
			l0,0c0,0,0,0,0.1,0c0,0,0,0,0,0c0,0,0.1,0,0.1,0l0,0c0,0,0,0,0,0c0,0,0,0,0,0c0,0,0,0,0.1,0c0,0,0,0,0,0c0,0,0,0-0.1,0
			c0,0,0,0,0,0l0,0c0,0,0,0,0,0c0,0,0,0,0,0c0,0,0,0,0,0c0,0,0,0,0.1,0c0,0,0,0,0,0c0,0,0.1,0,0.1,0c0,0,0,0,0,0l0,0c0,0,0,0,0,0
			c0,0,0,0,0,0l0,0c0.1,0,0,0,0,0c0,0,0,0,0,0c0,0,0,0,0.1,0c0,0,0,0,0,0c0,0,0,0,0.1,0c0,0,0,0-0.1,0l0,0c0,0,0.1,0,0.1,0
			c0,0,0,0,0,0c0,0,0.1,0,0.1,0c0,0,0,0,0,0c0,0,0,0,0.1,0c0,0,0,0,0,0l0,0l0,0c0,0,0,0,0.1,0c0.1,0,0.1,0,0.1,0c0,0,0,0,0,0
			c0,0,0,0,0,0c0,0,0,0,0,0c0,0,0,0,0,0c0,0,0,0,0,0c0,0,0,0,0,0c0,0,0,0,0,0c0,0,0,0,0,0c0,0,0,0,0,0c0,0,0,0,0,0l0,0c0,0,0,0,0,0
			c0,0,0,0,0,0c0,0,0,0,0,0c0,0,0,0,0,0c0,0,0,0,0,0c0,0,0,0,0,0c0,0,0,0,0,0c0,0,0,0,0,0c0,0,0,0,0,0c0,0,0,0,0,0.1c0,0,0,0,0,0
			c0,0,0.1,0,0.1,0l0,0c0,0,0,0,0,0c0,0,0,0.1,0,0.1c0,0,0,0,0,0c0,0,0,0,0,0c0,0,0,0,0,0c0,0,0,0.1,0,0l0,0l0,0c0,0,0,0,0,0
			c0,0,0,0,0,0.1c0,0,0,0,0,0c0,0,0,0.1,0,0.1c0,0,0,0,0,0l0,0c0,0,0,0,0.1,0c0,0,0,0,0,0.1c0,0,0,0,0.1,0c0,0,0,0,0,0l0,0
			c0,0,0,0.1,0,0.1l0,0l0,0c0,0,0,0,0,0l0,0c0,0,0,0,0,0c0,0,0,0,0,0c0,0,0,0,0,0c0,0,0.1,0,0.1,0c0,0,0,0,0,0l0,0l0,0c0,0,0,0,0,0
			c0,0-0.1,0,0,0c0,0,0,0,0,0c0,0,0,0,0,0c0,0,0,0,0,0c0,0,0,0,0,0l0,0c0,0,0,0,0,0c0,0,0,0,0,0c0,0,0,0,0,0c0,0,0,0,0.1,0
			c0,0,0,0,0,0c0,0,0,0,0,0c0,0,0,0,0,0c0,0,0,0,0,0l0,0c0,0,0,0,0,0c0,0,0,0,0,0c0,0,0,0,0,0c0,0,0,0,0,0c0,0,0,0.1,0,0l0,0
			c0,0,0,0,0,0l0,0c0,0,0,0,0,0l0,0c0,0,0,0,0,0c0,0,0,0,0,0c0,0,0,0,0,0c0,0,0,0,0,0c0,0,0,0.1,0,0.1c0,0,0,0,0,0c0,0,0,0.1,0,0.1
			c0,0,0,0,0,0c0,0,0,0,0,0l0,0c0,0,0,0,0,0c0,0,0,0,0,0.1c0,0,0,0,0,0c0,0,0,0,0,0l0,0c0,0.1,0,0,0,0c0,0,0,0,0,0c0,0,0,0,0,0
			c0,0,0,0,0,0c0,0,0,0.1,0,0.1c0-0.1,0,0,0-0.1c0,0,0,0,0,0c0,0,0,0,0,0c0,0,0,0,0,0c0,0,0,0,0,0l0,0c0,0,0,0,0,0c0,0,0,0,0,0
			c0,0,0-0.1,0-0.1c0,0,0,0,0,0c0,0,0,0,0,0c0,0,0,0,0,0l0,0c0,0,0,0,0,0c0,0,0,0,0,0c0,0,0,0,0,0l0,0c0,0,0,0,0,0l0-0.1l0,0
			c0,0,0,0,0,0c0,0,0-0.1,0-0.1c0,0,0-0.1,0-0.1c0,0,0-0.1,0,0c0,0,0,0,0,0c0,0,0,0,0,0l0,0l0,0l0,0c0,0,0,0,0,0l0,0l0,0
			c0,0,0,0,0,0l0,0l0,0c0,0,0,0,0,0c0,0,0,0,0,0l0,0c0,0,0,0,0,0l0,0c0-0.1,0-0.1,0-0.1c0,0,0,0,0,0c0,0,0-0.1-0.1-0.1
			c0,0,0,0,0-0.1c0,0,0,0,0,0c0,0,0-0.1,0-0.1c0,0,0,0,0,0l0,0l0,0c0-0.1-0.1-0.1,0-0.1l0,0l0,0c0,0,0,0,0,0c0,0,0,0,0-0.1l0,0
			c0,0,0,0,0,0c0,0,0,0,0,0l0,0c0,0,0,0,0,0c0,0,0,0,0,0l0,0c0,0,0,0,0,0c0,0,0,0,0,0c0,0,0,0,0-0.1c0,0,0,0,0,0c0,0,0,0-0.1-0.1
			l0,0l0,0l0,0l0,0c0,0,0,0,0,0l0,0c0,0,0-0.1-0.1-0.1c0,0,0,0,0,0c0,0,0,0-0.1-0.1c0,0,0,0,0,0l0,0l0,0l0,0l0,0l0,0c0,0,0,0,0-0.1
			l0,0c-0.1,0-0.1-0.1-0.2-0.2l0,0c0,0,0,0,0,0c0,0,0,0,0,0c0,0,0,0-0.1,0c0,0,0,0,0,0c0,0-0.1,0-0.1-0.1c0,0,0,0,0,0
			c0,0-0.1,0-0.1,0c0,0,0,0,0,0c0,0,0,0,0,0l0,0c0,0-0.1,0-0.1,0c0,0,0,0,0,0c0,0-0.1,0-0.1,0c0,0,0,0,0,0c0,0,0,0,0,0l0,0
			c0,0-0.1,0-0.1,0c0,0-0.1,0-0.1,0c0,0,0,0,0,0c0,0,0,0,0,0l0,0l0,0l0,0c0,0,0,0,0,0c0,0,0,0,0,0l0,0C13,9.8,13,9.7,13,9.7
			c0,0,0,0,0,0l0,0l0,0l-0.1,0l0,0c0,0-0.1,0-0.1,0l0,0c-0.1,0,0,0-0.1,0c0,0,0,0,0,0l0,0l0,0c0,0-0.1,0-0.1,0c0,0,0,0,0,0
			c0,0,0,0,0,0c0,0,0,0-0.1,0l0,0c0,0,0,0-0.1,0l0,0c0,0,0,0-0.1,0c0,0,0,0,0,0c-0.1,0-0.1,0-0.1,0c0,0,0,0,0,0l0,0
			c-0.1,0-0.2,0-0.2,0l0,0l0,0c-0.1,0-0.2,0-0.3,0c0,0,0,0-0.1,0l0,0c-0.1,0-0.1,0.1-0.2,0.1c0,0,0,0,0,0c0,0,0,0,0,0l0,0
			c0,0,0,0-0.1,0c0,0,0,0,0,0c0,0,0,0,0,0l0,0l0,0c0,0,0,0,0,0.1c0,0,0,0,0,0c0,0-0.1,0-0.1,0l0,0c0,0,0,0,0,0c0,0,0,0,0,0
			c0,0,0,0,0,0c0,0,0,0-0.1,0l0,0c0,0,0,0-0.1,0c0,0,0,0,0,0c0,0,0,0,0,0c0,0,0,0-0.1,0c0,0-0.1,0-0.1,0.1l0,0c0,0,0,0,0,0
			c0,0,0,0,0,0l0,0c-0.1,0.1-0.2,0.2-0.3,0.3c0,0-0.1,0.1-0.1,0.2l0,0l0,0.1l0,0c0,0,0,0,0,0c0,0.1-0.1,0.1-0.1,0.2c0,0.1,0,0,0,0.1
			c0,0,0,0,0,0c0,0.1,0,0.1,0,0.2c0,0,0,0,0,0l0,0c0,0,0,0,0,0l0,0l0,0c0,0,0,0.1-0.1,0.1c0,0.1,0,0.2-0.1,0.3c0,0,0,0,0,0.1l0,0
			c0,0,0,0.1,0,0.1c0,0,0,0,0,0c0,0,0,0.1,0,0.1c0,0,0,0,0,0c0,0,0,0,0,0c0,0,0,0.1,0,0.1l0,0c0,0,0,0,0,0c0,0,0.1,0,0.2,0
			c0.1,0,0.1-0.1,0.1-0.1l0,0c0,0,0-0.1,0-0.1c0,0,0,0,0,0c0,0,0,0,0,0c0,0,0-0.1,0-0.1c0,0,0,0,0-0.1c0,0,0,0,0-0.1l0,0l0,0l0,0
			l0,0l0,0l0,0c-0.2,0,0.5,0-0.5,0l0,0c0,0,0,0,0,0c0,0.1,0,0.3,0,0.5c0,0.4,0,0.8,0.1,0.9c0,0,0,0,0,0c0,0,0,0,0,0c0,0,0,0,0.1,0
			l0,0c0,0,0,0,0,0l0,0c0,0,0,0,0,0c0,0,0,0,0-0.1l0,0c0,0,0,0,0,0l0,0l0,0c0,0,0,0,0,0c0,0,0,0,0,0c0,0,0,0,0,0l0,0c0,0,0,0,0,0
			l0,0c0,0,0,0,0-0.1c0,0,0,0,0,0l0-0.1c0,0,0,0,0,0c0,0,0,0,0,0c0,0,0,0,0,0c0,0,0,0,0-0.1c0,0,0,0,0,0l0,0c0,0,0,0,0,0
			c0-0.1,0.1-0.2,0.1-0.3c0,0,0,0,0,0c0-0.1,0-0.1,0-0.2l0,0c0-0.1,0-0.2,0-0.3l0,0c0,0,0,0,0-0.1c0,0,0,0,0,0c0,0,0,0,0,0
			c0,0,0-0.1,0-0.2c0,0,0-0.1,0-0.1l0,0l0,0l0,0l0,0l0,0l0,0c-0.8-0.1-0.2,0-0.4,0l0,0l0,0l0,0c0,0,0,0,0,0.1c0,0,0,0,0,0.1
			c0,0,0,0,0,0c0,0,0,0,0,0c0,0,0,0,0,0c0,0,0,0,0,0s0,0,0,0c0,0,0,0,0,0c0,0,0,0,0.1,0c0,0,0.1,0,0.1,0c0,0,0.1,0,0.1,0
			c0,0,0,0,0,0l0,0c0,0,0,0,0,0c0,0,0,0.1,0,0.1l0,0c0,0,0,0,0,0c0,0,0-0.1,0-0.1c0-0.1,0-0.2,0.1-0.3c0,0,0,0,0,0
			c0.1,0,0-0.1,0.1-0.1c0-0.1,0.1-0.2,0.1-0.3l0,0c0,0,0,0,0,0l0,0c0,0,0-0.1,0-0.1l0,0c0,0,0,0,0,0l0,0l0,0c0,0,0,0,0.1-0.1
			c0,0,0-0.1,0.1-0.1c0,0,0,0,0.1-0.1c0-0.1,0.1-0.1,0.1-0.2l0,0l0,0c0,0,0,0,0,0c0,0,0,0,0,0c0,0,0,0,0,0c0,0,0,0,0,0l0,0l0,0
			c0,0,0,0,0,0c0,0,0.1-0.1,0.1-0.1c0,0,0,0,0,0c0,0,0,0,0,0c0,0,0,0,0,0c0,0,0,0,0,0l0,0c0,0,0,0,0,0c0,0,0.1,0,0.1-0.1
			c0,0,0,0,0,0c0,0,0,0,0.1,0l0,0c0,0,0,0,0,0c0,0,0,0,0,0c0,0,0.1,0,0,0c0,0,0,0,0,0c0,0,0,0,0,0C11.5,10.2,11.5,10.2,11.6,10.2
			C11.6,10.2,11.6,10.2,11.6,10.2C11.6,10.1,11.6,10.2,11.6,10.2z"/>
		<path d="M13.5,10.3L13.5,10.3C13.5,10.3,13.5,10.3,13.5,10.3L13.5,10.3z"/>
		<path d="M12.8,10C12.8,10,12.8,10.1,12.8,10C12.8,10.1,12.8,10.1,12.8,10z"/>
		<path d="M12.7,10C12.7,10,12.7,10,12.7,10C12.7,10,12.7,10,12.7,10z"/>
		<path d="M13.8,10.5C13.8,10.5,13.8,10.5,13.8,10.5C13.8,10.5,13.8,10.5,13.8,10.5z"/>
		<path d="M14.4,11.3C14.4,11.3,14.4,11.3,14.4,11.3C14.4,11.3,14.4,11.3,14.4,11.3z"/>
		<path d="M14.5,11.3C14.5,11.3,14.4,11.3,14.5,11.3C14.4,11.3,14.4,11.3,14.5,11.3z"/>
		<path d="M13.6,10.3C13.6,10.3,13.6,10.3,13.6,10.3C13.6,10.3,13.6,10.3,13.6,10.3z"/>
		<polygon points="14.4,11.3 14.4,11.2 14.4,11.2 		"/>
		<path d="M14.5,11.4C14.5,11.4,14.4,11.4,14.5,11.4C14.4,11.4,14.4,11.4,14.5,11.4z"/>
		<path d="M14.1,10.7L14.1,10.7C14.1,10.7,14.1,10.7,14.1,10.7z"/>
		<polygon points="14.4,11.2 14.4,11.2 14.4,11.2 		"/>
		<polygon points="14.5,11.4 14.5,11.4 14.5,11.4 		"/>
		<path d="M14.3,10.9C14.3,10.9,14.3,10.9,14.3,10.9C14.3,10.9,14.3,10.9,14.3,10.9z"/>
	</g>
	<rect x="7.4" y="18.4" fill="#FFFFFF" width="1.9" height="1.9"/>
	<rect x="9.9" y="18.4" fill="#FFFFFF" width="1.9" height="1.9"/>
	<rect x="12.2" y="18.4" fill="#FFFFFF" width="1.9" height="1.9"/>
	<rect x="14.5" y="18.4" fill="#FFFFFF" width="1.9" height="1.9"/>
</g>
</svg>
